<svg xmlns="http://www.w3.org/2000/svg" viewBox="0 0 700 500">
  <defs>
    <linearGradient id="lb2" x1="0%" y1="0%" x2="100%" y2="100%">
      <stop offset="0%" stop-color="#0d1520"/>
      <stop offset="100%" stop-color="#1a0810"/>
    </linearGradient>
  </defs>
  <rect width="700" height="500" fill="url(#lb2)"/>
  <!-- Equipment rack -->
  <rect x="50" y="60" width="160" height="380" rx="4" fill="rgba(15,25,45,0.9)" stroke="rgba(200,21,27,0.2)" stroke-width="1.5"/>
  <rect x="58" y="75" width="144" height="28" rx="3" fill="rgba(200,21,27,0.12)" stroke="rgba(200,21,27,0.3)" stroke-width="1"/>
  <circle cx="185" cy="89" r="7" fill="rgba(200,21,27,0.5)"/>
  <circle cx="185" cy="89" r="4" fill="rgba(200,21,27,0.9)"/>
  <rect x="58" y="114" width="144" height="22" rx="3" fill="rgba(30,45,70,0.8)" stroke="rgba(100,140,200,0.2)" stroke-width="1"/>
  <rect x="62" y="118" width="80" height="14" rx="2" fill="rgba(200,21,27,0.15)"/>
  <rect x="58" y="145" width="144" height="22" rx="3" fill="rgba(30,45,70,0.8)" stroke="rgba(100,140,200,0.2)" stroke-width="1"/>
  <rect x="62" y="149" width="95" height="14" rx="2" fill="rgba(100,140,200,0.15)"/>
  <rect x="58" y="176" width="144" height="60" rx="3" fill="rgba(20,35,55,0.9)" stroke="rgba(200,21,27,0.15)" stroke-width="1"/>
  <polyline points="65,215 80,200 95,218 110,195 125,215 140,198 155,212 170,196 185,210 195,200" fill="none" stroke="rgba(200,21,27,0.7)" stroke-width="1.5"/>
  <!-- Main display -->
  <rect x="260" y="80" width="380" height="240" rx="8" fill="rgba(5,12,25,0.95)" stroke="rgba(200,21,27,0.4)" stroke-width="2"/>
  <rect x="270" y="90" width="360" height="220" fill="rgba(3,8,18,0.98)"/>
  <!-- Display content -->
  <text x="290" y="115" font-family="monospace" font-size="11" fill="rgba(200,21,27,0.7)" letter-spacing="2">SISTEMA DE MONITOREO RADIOLÓGICO</text>
  <line x1="270" y1="122" x2="630" y2="122" stroke="rgba(200,21,27,0.2)" stroke-width="1"/>
  <!-- Readings -->
  <text x="285" y="148" font-family="monospace" font-size="10" fill="rgba(100,200,100,0.8)">ZONA A  ► 0.12 μSv/h  ✓ NORMAL</text>
  <text x="285" y="168" font-family="monospace" font-size="10" fill="rgba(100,200,100,0.8)">ZONA B  ► 0.08 μSv/h  ✓ NORMAL</text>
  <text x="285" y="188" font-family="monospace" font-size="10" fill="rgba(255,200,0,0.8)">ZONA C  ► 2.45 μSv/h  ⚠ ALERTA</text>
  <text x="285" y="208" font-family="monospace" font-size="10" fill="rgba(100,200,100,0.8)">ZONA D  ► 0.15 μSv/h  ✓ NORMAL</text>
  <line x1="270" y1="222" x2="630" y2="222" stroke="rgba(200,21,27,0.15)" stroke-width="1"/>
  <!-- Graph -->
  <polyline points="280,280 306,265 332,272 358,250 384,268 410,242 436,260 462,238 488,255 514,240 540,252 566,235 592,248 618,232" fill="none" stroke="rgba(200,21,27,0.8)" stroke-width="2"/>
  <polyline points="280,285 306,280 332,278 358,275 384,282 410,270 436,278 462,268 488,274 514,265 540,272 566,260 592,268 618,255" fill="none" stroke="rgba(100,140,200,0.5)" stroke-width="1.5"/>
</svg>